<?xml version="1.0" encoding="utf-8"?>
<!-- Generator: Adobe Illustrator 16.0.0, SVG Export Plug-In . SVG Version: 6.00 Build 0)  -->
<!DOCTYPE svg PUBLIC "-//W3C//DTD SVG 1.1//EN" "http://www.w3.org/Graphics/SVG/1.1/DTD/svg11.dtd">
<svg version="1.1" xmlns="http://www.w3.org/2000/svg" xmlns:xlink="http://www.w3.org/1999/xlink" x="0px" y="0px" width="2051px"
	 height="768px" viewBox="0 0 2051 768" enable-background="new 0 0 2051 768" xml:space="preserve">
<g id="Capa_2">
</g>
<g id="Capa_1">
	<linearGradient id="SVGID_1_" gradientUnits="userSpaceOnUse" x1="1026" y1="147.3789" x2="1026" y2="-4.882813e-004">
		<stop  offset="0" style="stop-color:#D55EAC"/>
		<stop  offset="0.2922" style="stop-color:#DA62AC;stop-opacity:0.7078"/>
		<stop  offset="0.6479" style="stop-color:#E96CAC;stop-opacity:0.3521"/>
		<stop  offset="1" style="stop-color:#FF7BAC;stop-opacity:0"/>
	</linearGradient>
	<path fill="url(#SVGID_1_)" d="M2050,0v91.54c0,0-13.36,1.93-20.36,1.66c-7-0.28-26.609-5.82-34.359-11.92
		c-7.75-6.09-14.75-9.971-22.5-9.7c-7.75,0.28-17.5,6.38-21.75,13.03c-4.25,6.649-18.37,7.479-20.37,18.699
		c-2,11.23-1.63,22.03-8.13,22.45c-6.5,0.41-10.87-2.77-10-12.189s8.37-23.42-12.87-38.38c-21.26-14.971-49.26-1.391-67.76,14.13
		c-18.5,15.52-80.62,85.35-126.12,6.649s-60.25-23.279-93.5,13.3c-33.25,36.58-48.5,3.051-56-2.77s-12-3.88-15.75-0.83
		s-12.75,20.5-23.25,2.21c-10.5-18.28-26.87-44.37-72.25-13.3c-8.5,5.82-23,40.189-26,44.9c-3,4.71-10.75,7.479-15.75,2.21
		c-5-5.261-4.25-4.98-12.75-38.521c-8.5-33.53-39.75-1.939-48.5,6.65c-8.75,8.6-37.75,48.39-88,34.729s-64-69.64-89-71.58
		c-25-1.939-29.74,9.42-36.99,15.24s-29.74,36.021-65.99,6.65c-34.58-28.021-34.55-24.521-36-23.42c-0.04,0.029-0.08,0.06-0.13,0.09
		c-0.05-0.021-0.1-0.061-0.14-0.09c-1.45-1.101-1.45-4.601-36.03,23.42c-36.25,29.37-58.75-0.83-66-6.65s-12-17.18-37-15.24
		c-25,1.94-38.75,57.92-89,71.58s-79.25-26.13-88-34.729c-8.75-8.59-40-40.181-48.5-6.65c-8.5,33.54-7.75,33.26-12.75,38.521
		c-5,5.27-12.75,2.5-15.75-2.21c-3-4.711-17.5-39.08-26-44.9c-45.38-31.07-61.75-4.98-72.25,13.3c-10.5,18.29-19.5,0.84-23.25-2.21
		s-8.25-4.99-15.75,0.83s-22.75,39.35-56,2.77c-33.25-36.579-48-92-93.5-13.3s-107.62,8.87-126.12-6.649
		c-18.5-15.521-46.5-29.101-67.76-14.13c-21.24,14.96-13.74,28.96-12.87,38.38s-3.5,12.6-10,12.189c-6.5-0.42-6.13-11.22-8.13-22.45
		c-2-11.22-16.12-12.05-20.37-18.699c-4.25-6.65-14-12.75-21.75-13.03c-7.75-0.271-14.75,3.61-22.5,9.7
		c-7.75,6.1-27.25,11.64-34.25,11.92C15.25,93.47,2,91.54,2,91.54V11"/>
	<linearGradient id="SVGID_2_" gradientUnits="userSpaceOnUse" x1="1" y1="395" x2="1" y2="384.0005">
		<stop  offset="0" style="stop-color:#D55EAC"/>
		<stop  offset="0.3081" style="stop-color:#E76BAC;stop-opacity:0.6919"/>
		<stop  offset="0.7074" style="stop-color:#F977AC;stop-opacity:0.2926"/>
		<stop  offset="1" style="stop-color:#FF7BAC;stop-opacity:0"/>
	</linearGradient>
	<line fill="url(#SVGID_2_)" x1="1" y1="395" x2="1" y2="384"/>
	<linearGradient id="SVGID_3_" gradientUnits="userSpaceOnUse" x1="1024.9844" y1="455.5801" x2="1024.9844" y2="455.4404">
		<stop  offset="0" style="stop-color:#D55EAC"/>
		<stop  offset="0.3081" style="stop-color:#E76BAC;stop-opacity:0.6919"/>
		<stop  offset="0.7074" style="stop-color:#F977AC;stop-opacity:0.2926"/>
		<stop  offset="1" style="stop-color:#FF7BAC;stop-opacity:0"/>
	</linearGradient>
	<path fill="url(#SVGID_3_)" d="M1025.05,455.44c-0.01,0.09-0.03,0.14-0.05,0.14c-0.03-0.01-0.06-0.03-0.08-0.05
		C1024.97,455.5,1025.01,455.47,1025.05,455.44z"/>
	<linearGradient id="SVGID_4_" gradientUnits="userSpaceOnUse" x1="1024.8506" y1="455.5801" x2="1024.8506" y2="455.4404">
		<stop  offset="0" style="stop-color:#D55EAC"/>
		<stop  offset="0.3081" style="stop-color:#E76BAC;stop-opacity:0.6919"/>
		<stop  offset="0.7074" style="stop-color:#F977AC;stop-opacity:0.2926"/>
		<stop  offset="1" style="stop-color:#FF7BAC;stop-opacity:0"/>
	</linearGradient>
	<path fill="url(#SVGID_4_)" d="M1024.92,455.53c-0.03,0.02-0.06,0.029-0.09,0.05c-0.021,0-0.04-0.05-0.05-0.14
		C1024.82,455.47,1024.87,455.51,1024.92,455.53z"/>
	<linearGradient id="SVGID_5_" gradientUnits="userSpaceOnUse" x1="1025.5" y1="384" x2="1025.5" y2="383.9995">
		<stop  offset="0" style="stop-color:#D55EAC"/>
		<stop  offset="0.3081" style="stop-color:#E76BAC;stop-opacity:0.6919"/>
		<stop  offset="0.7074" style="stop-color:#F977AC;stop-opacity:0.2926"/>
		<stop  offset="1" style="stop-color:#FF7BAC;stop-opacity:0"/>
	</linearGradient>
	<line fill="url(#SVGID_5_)" x1="2051" y1="384" x2="0" y2="384"/>
</g>
<g id="Capa_1_copia">
</g>
</svg>
